<svg xmlns="http://www.w3.org/2000/svg" xmlns:xlink="http://www.w3.org/1999/xlink" x="0px" y="0px" width="336px" height="48px" viewBox="0 0 336 48"><g  transform="translate(0, 0)">
<path fill="#c3c5c8" d="M8,3C5.2,3,3,5.2,3,8s2.2,5,5,5s5-2.2,5-5S10.8,3,8,3z"/>
<path fill="#c3c5c8" d="M8,19c-2.8,0-5,2.2-5,5s2.2,5,5,5s5-2.2,5-5S10.8,19,8,19z"/>
<path fill="#c3c5c8" d="M8,35c-2.8,0-5,2.2-5,5s2.2,5,5,5s5-2.2,5-5S10.8,35,8,35z"/>
<rect data-color="color-2" x="19" y="5" fill="#0088f2" width="26" height="6"/>
<rect data-color="color-2" x="19" y="21" fill="#0088f2" width="26" height="6"/>
<rect data-color="color-2" x="19" y="37" fill="#0088f2" width="26" height="6"/>
</g><g  transform="translate(48, 0)">
<polygon fill="#c3c5c8" points="24,28.4 1,15.9 1,43 47,43 47,15.9 "/>
<polygon data-color="color-2" fill="#0088f2" points="1,5 1,13.6 24,26.1 47,13.6 47,5 "/>
</g><g  transform="translate(96, 0)">
<path data-color="color-2" fill="#0088f2" d="M26.8,19.8l-1.4,1.4l0.7,0.7c1.7,1.7,2.6,4,2.6,6.4c0,2.4-0.9,4.7-2.6,6.4l-5.7,5.7
	c-3.5,3.5-9.2,3.5-12.7,0c-3.5-3.5-3.5-9.2,0-12.7l5.7-5.5L12,20.6l-5.7,5.5C2,30.4,2,37.4,6.3,41.7c2.1,2.1,5,3.2,7.8,3.2
	c2.8,0,5.6-1.1,7.8-3.2l5.7-5.7c2.1-2.1,3.2-4.8,3.2-7.8c0-2.9-1.1-5.7-3.2-7.8L26.8,19.8z"/>
<path fill="#c3c5c8" d="M26.1,6.3L20.5,12c-2.1,2.1-3.2,4.8-3.2,7.8c0,2.9,1.1,5.7,3.2,7.8l0.7,0.7l1.4-1.4l-0.7-0.7
	c-1.7-1.7-2.6-4-2.6-6.4c0-2.4,0.9-4.7,2.6-6.4l5.7-5.7c3.5-3.5,9.2-3.5,12.7,0c3.5,3.5,3.5,9.2,0,12.7L34.6,26l1.4,1.4l5.7-5.5
	c4.3-4.3,4.3-11.3,0-15.6C37.4,2,30.4,2,26.1,6.3z"/>
</g><g  transform="translate(144, 0)">
<path data-color="color-2" fill="#0088f2" d="M44.4,13.4c-0.5,0.4-1.1,0.8-1.7,1c1.5,2.9,2.3,6.2,2.3,9.5c0,11.6-9.4,21-21,21S3,35.6,3,24
	S12.4,3,24,3c3.4,0,6.6,0.8,9.5,2.3c0.3-0.6,0.6-1.2,1-1.7C31.3,1.9,27.7,1,24,1C11.3,1,1,11.3,1,24s10.3,23,23,23s23-10.3,23-23
	C47,20.3,46.1,16.7,44.4,13.4z"/>
<path fill="#c3c5c8" d="M40,13c2.8,0,5-2.2,5-5s-2.2-5-5-5s-5,2.2-5,5S37.2,13,40,13z"/>
<path fill="#c3c5c8" d="M24,25c2.8,0,5-2.2,5-5v-2c0-2.8-2.2-5-5-5s-5,2.2-5,5v2C19,22.8,21.2,25,24,25z"/>
<path fill="#c3c5c8" d="M15,32v1h18v-1c0-2.8-2.2-5-5-5h-8C17.2,27,15,29.2,15,32z"/>
</g><g  transform="translate(192, 0)">
<path data-color="color-2" fill="#0088f2" d="M8,5c-2.8,0-5,2.2-5,5s2.2,5,5,5s5-2.2,5-5S10.8,5,8,5z"/>
<path data-color="color-2" fill="#0088f2" d="M40,5c-2.8,0-5,2.2-5,5s2.2,5,5,5s5-2.2,5-5S42.8,5,40,5z"/>
<path fill="#c3c5c8" d="M24,1c-3.9,0-7,3.1-7,7s3.1,7,7,7s7-3.1,7-7S27.9,1,24,1z"/>
<polygon data-color="color-2" fill="#0088f2" points="12,33.1 12,19 1,19 1,28.3 5,34.3 5,43 15,43 15,36.7 "/>
<polygon data-color="color-2" fill="#0088f2" points="36,19 36,33.1 33,36.7 33,43 43,43 43,34.3 47,28.3 47,19 "/>
<polygon fill="#c3c5c8" points="14,19 14,32.4 19,38.4 19,47 29,47 29,38.4 34,32.4 34,19 "/>
</g><g  transform="translate(240, 0)">
<rect data-color="color-2" x="28.1" y="24.7" transform="matrix(0.5038 0.8638 -0.8638 0.5038 38.118 -14.883)" fill="#0088f2" width="7.8" height="2"/>
<rect data-color="color-2" x="17" y="18.4" transform="matrix(0.8636 0.5041 -0.5041 0.8636 13.6882 -6.0359)" fill="#0088f2" width="2" height="7.8"/>
<rect data-color="color-2" x="17.9" y="35" fill="#0088f2" width="8.1" height="2"/>
<path fill="#c3c5c8" d="M10,27c-5,0-9,4-9,9s4,9,9,9s9-4,9-9S15,27,10,27z"/>
<path fill="#c3c5c8" d="M38,27c-5,0-9,4-9,9s4,9,9,9s9-4,9-9S43,27,38,27z"/>
<path fill="#c3c5c8" d="M33,12c0-5-4-9-9-9s-9,4-9,9s4,9,9,9S33,17,33,12z"/>
</g><g  transform="translate(288, 0)">
<polygon data-color="color-2" fill="#0088f2" points="27,34 27,37 21,37 21,34 3,34 3,45 45,45 45,34 "/>
<path fill="#c3c5c8" d="M33,9V3H15v6H1v23h20v-3h6v3h20V9H33z M31,9H17V5h14V9z"/>
</g></svg>