<svg class="nc-icon outline" xmlns="http://www.w3.org/2000/svg" width="48" height="48" viewBox="0 0 48 48"><g stroke="#444" stroke-width="2" stroke-miterlimit="10" fill="none"><path d="M31 10.1c3.9.5 7 3.9 7 7.9 0 4.1-3.1 7.4-7 7.9M18.7 26l7.3 12.5c1.1 1.9.5 4.4-1.4 5.5-1.9 1.1-4.4.5-5.5-1.4l-9.7-16.6"/><path stroke-linecap="square" d="M14 10h-8c-2.2 0-4 3.6-4 8s1.8 8 4 8h8"/><path d="M38 2c-5.9 0-11.1 3.2-13.8 8h-10.2c-2.2 0-4 3.6-4 8s1.8 8 4 8h10.2c2.8 4.8 7.9 8 13.8 8"/><ellipse stroke-linecap="square" cx="38" cy="18" rx="8" ry="16"/></g></svg>