<svg xmlns="http://www.w3.org/2000/svg" width="336" height="48" viewBox="0 0 336 48"><path fill="#c3c5c8" d="M8 3C5.2 3 3 5.2 3 8s2.2 5 5 5 5-2.2 5-5-2.2-5-5-5zM8 19c-2.8 0-5 2.2-5 5s2.2 5 5 5 5-2.2 5-5-2.2-5-5-5zM8 35c-2.8 0-5 2.2-5 5s2.2 5 5 5 5-2.2 5-5-2.2-5-5-5z"/><path data-color="color-2" fill="#0088f2" d="M19 5h26v6H19zM19 21h26v6H19zM19 37h26v6H19z"/><path fill="#c3c5c8" d="M72 28.4L49 15.9V43h46V15.9z"/><path data-color="color-2" fill="#0088f2" d="M49 5v8.6l23 12.5 23-12.5V5z"/><g><path data-color="color-2" fill="#0088f2" d="M122.8 19.8l-1.4 1.4.7.7c1.7 1.7 2.6 4 2.6 6.4 0 2.4-.9 4.7-2.6 6.4l-5.7 5.7c-3.5 3.5-9.2 3.5-12.7 0s-3.5-9.2 0-12.7l5.7-5.5-1.4-1.6-5.7 5.5c-4.3 4.3-4.3 11.3 0 15.6 2.1 2.1 5 3.2 7.8 3.2s5.6-1.1 7.8-3.2l5.7-5.7c2.1-2.1 3.2-4.8 3.2-7.8 0-2.9-1.1-5.7-3.2-7.8l-.8-.6z"/><path fill="#c3c5c8" d="M122.1 6.3l-5.6 5.7c-2.1 2.1-3.2 4.8-3.2 7.8 0 2.9 1.1 5.7 3.2 7.8l.7.7 1.4-1.4-.7-.7c-1.7-1.7-2.6-4-2.6-6.4 0-2.4.9-4.7 2.6-6.4l5.7-5.7c3.5-3.5 9.2-3.5 12.7 0s3.5 9.2 0 12.7l-5.7 5.6 1.4 1.4 5.7-5.5c4.3-4.3 4.3-11.3 0-15.6-4.3-4.3-11.3-4.3-15.6 0z"/></g><g><path data-color="color-2" fill="#0088f2" d="M188.4 13.4c-.5.4-1.1.8-1.7 1 1.5 2.9 2.3 6.2 2.3 9.5 0 11.6-9.4 21-21 21s-21-9.3-21-20.9 9.4-21 21-21c3.4 0 6.6.8 9.5 2.3.3-.6.6-1.2 1-1.7C175.3 1.9 171.7 1 168 1c-12.7 0-23 10.3-23 23s10.3 23 23 23 23-10.3 23-23c0-3.7-.9-7.3-2.6-10.6z"/><path fill="#c3c5c8" d="M184 13c2.8 0 5-2.2 5-5s-2.2-5-5-5-5 2.2-5 5 2.2 5 5 5zM168 25c2.8 0 5-2.2 5-5v-2c0-2.8-2.2-5-5-5s-5 2.2-5 5v2c0 2.8 2.2 5 5 5zM159 32v1h18v-1c0-2.8-2.2-5-5-5h-8c-2.8 0-5 2.2-5 5z"/></g><g><path data-color="color-2" fill="#0088f2" d="M200 5c-2.8 0-5 2.2-5 5s2.2 5 5 5 5-2.2 5-5-2.2-5-5-5zM232 5c-2.8 0-5 2.2-5 5s2.2 5 5 5 5-2.2 5-5-2.2-5-5-5z"/><path fill="#c3c5c8" d="M216 1c-3.9 0-7 3.1-7 7s3.1 7 7 7 7-3.1 7-7-3.1-7-7-7z"/><path data-color="color-2" fill="#0088f2" d="M204 33.1V19h-11v9.3l4 6V43h10v-6.3zM228 19v14.1l-3 3.6V43h10v-8.7l4-6V19z"/><path fill="#c3c5c8" d="M206 19v13.4l5 6V47h10v-8.6l5-6V19z"/></g><g><path data-color="color-2" fill="#0088f2" d="M270.94 21.834l3.93 6.737-1.73 1.01-3.93-6.74zM259.094 18.424l1.727 1.008-3.93 6.736-1.728-1.008zM257.9 35h8.1v2h-8.1z"/><path fill="#c3c5c8" d="M250 27c-5 0-9 4-9 9s4 9 9 9 9-4 9-9-4-9-9-9zM278 27c-5 0-9 4-9 9s4 9 9 9 9-4 9-9-4-9-9-9zM273 12c0-5-4-9-9-9s-9 4-9 9 4 9 9 9 9-4 9-9z"/></g><g><path data-color="color-2" fill="#0088f2" d="M315 34v3h-6v-3h-18v11h42V34z"/><path fill="#c3c5c8" d="M321 9V3h-18v6h-14v23h20v-3h6v3h20V9h-14zm-2 0h-14V5h14v4z"/></g></svg>