<?xml version="1.0" encoding="utf-8"?><svg width="824" height="834" viewBox="0 0 824 834" xmlns="http://www.w3.org/2000/svg" xmlns:xlink="http://www.w3.org/1999/xlink"><svg class="anc-icon aglyph" width="48" height="48" viewBox="0 0 48 48" id="about"><path data-color="color-2" fill="#0088f2" d="M44.4 13.4c-.5.4-1.1.8-1.7 1 1.5 2.9 2.3 6.2 2.3 9.5 0 11.6-9.4 21-21 21S3 35.6 3 24 12.4 3 24 3c3.4 0 6.6.8 9.5 2.3.3-.6.6-1.2 1-1.7C31.3 1.9 27.7 1 24 1 11.3 1 1 11.3 1 24s10.3 23 23 23 23-10.3 23-23c0-3.7-.9-7.3-2.6-10.6z"/><path fill="#d6d8da" d="M40 13c2.8 0 5-2.2 5-5s-2.2-5-5-5-5 2.2-5 5 2.2 5 5 5zM24 25c2.8 0 5-2.2 5-5v-2c0-2.8-2.2-5-5-5s-5 2.2-5 5v2c0 2.8 2.2 5 5 5zM15 32v1h18v-1c0-2.8-2.2-5-5-5h-8c-2.8 0-5 2.2-5 5z"/></svg><svg width="24" height="24" viewBox="0 0 24 24" id="box-email" x="48" y="48"><title>box-email</title><defs><path d="M12.717 0H.283C.113 0 0 .116 0 .29v10.42c0 .174.113.29.283.29h12.434c.17 0 .283-.116.283-.29V.29c0-.174-.113-.29-.283-.29zM3.872 7.44l-1.13 1.157a.254.254 0 0 1-.2.087.254.254 0 0 1-.196-.087.285.285 0 0 1 0-.405l1.13-1.158a.27.27 0 0 1 .396 0 .285.285 0 0 1 0 .405zm6.782 1.157a.254.254 0 0 1-.197.087.254.254 0 0 1-.198-.087L9.127 7.44a.285.285 0 0 1 0-.406.27.27 0 0 1 .396 0l1.13 1.158a.285.285 0 0 1 0 .405zm0-5.79L6.698 6.862a.254.254 0 0 1-.198.087.254.254 0 0 1-.198-.086L2.346 2.81a.285.285 0 0 1 0-.405.27.27 0 0 1 .395 0l3.76 3.85 3.76-3.85a.27.27 0 0 1 .394 0 .285.285 0 0 1 0 .405z" id="ba"/></defs><g fill="none" fill-rule="evenodd"><path d="M21 0H3C1.3 0 0 1.3 0 3v18c0 1.7 1.3 3 3 3h18c1.7 0 3-1.3 3-3V3c0-1.7-1.3-3-3-3zM8.7 18H6.2v-8h2.5v8zM7.4 8.9C6.6 8.9 6 8.2 6 7.5 6 6.7 6.6 6 7.4 6c.8 0 1.4.6 1.4 1.4.1.8-.6 1.5-1.4 1.5zM18 18h-2.5v-3.9c0-.9 0-2.1-1.3-2.1s-1.5 1-1.5 2.1v4h-2.5v-8h2.4v1.1c.3-.6 1.1-1.3 2.4-1.3 2.5 0 3 1.7 3 3.8V18z" fill="#363F48"/><rect fill="#363F48" width="24" height="24" rx="3"/><g transform="translate(6 7)"><use fill="#FFF" xlink:href="#ba"/><use xlink:href="#ba"/><use xlink:href="#ba"/></g></g></svg><svg class="cnc-icon cglyph" width="24" height="24" viewBox="0 0 24 24" id="box-linkedin" x="72" y="72"><path fill="#363f48" d="M21 0H3C1.3 0 0 1.3 0 3v18c0 1.7 1.3 3 3 3h18c1.7 0 3-1.3 3-3V3c0-1.7-1.3-3-3-3zM8.7 18H6.2v-8h2.5v8zM7.4 8.9C6.6 8.9 6 8.2 6 7.5 6 6.7 6.6 6 7.4 6c.8 0 1.4.6 1.4 1.4.1.8-.6 1.5-1.4 1.5zM18 18h-2.5v-3.9c0-.9 0-2.1-1.3-2.1s-1.5 1-1.5 2.1v4h-2.5v-8h2.4v1.1c.3-.6 1.1-1.3 2.4-1.3 2.5 0 3 1.7 3 3.8V18z"/></svg><svg class="dnc-icon dglyph" width="24" height="24" viewBox="0 0 24 24" id="box-skype" x="96" y="96"><g fill="#363f48"><path d="M13.1 11.3l-1.4-.3c-.5-.1-1.1-.3-1.1-.7 0-.5.4-.8 1.1-.8 1.5 0 1.3 1 2.1 1 .4 0 .7-.2.7-.6 0-.9-1.5-1.6-2.7-1.6-1.3 0-2.8.6-2.8 2.1 0 .7.3 1.5 1.7 1.9l1.8.4c.5.1.7.4.7.7 0 .5-.5.9-1.3.9-1.6 0-1.4-1.2-2.2-1.2-.4 0-.7.3-.7.6 0 .7.9 1.7 2.9 1.7 1.9 0 2.9-.9 2.9-2.2.1-.7-.3-1.6-1.7-1.9z"/><path d="M21 0H3C1.3 0 0 1.3 0 3v18c0 1.7 1.3 3 3 3h18c1.7 0 3-1.3 3-3V3c0-1.7-1.3-3-3-3zm-4 17c-.6.6-1.5 1-2.4 1-.6 0-1.1-.2-1.7-.4-.3.1-.7.1-1 .1-.8 0-1.5-.1-2.2-.4-.6-.4-1.2-.8-1.7-1.3s-.9-1.1-1.2-1.8c-.3-.7-.4-1.4-.4-2.2 0-.3 0-.7.1-1-.4-.5-.5-1.1-.5-1.6 0-.9.3-1.8 1-2.4.6-.6 1.5-1 2.4-1 .5 0 1.1.1 1.6.4.4-.1.7-.1 1.1-.1.8 0 1.5.1 2.2.4.6.3 1.2.7 1.7 1.3.5.5.9 1.1 1.2 1.8.3.7.4 1.4.4 2.2 0 .3 0 .7-.1 1 .3.5.4 1.1.4 1.6.1.9-.2 1.8-.9 2.4z"/></g></svg><svg class="enc-icon eglyph" width="24" height="24" viewBox="0 0 24 24" id="box-twitter" x="120" y="120"><path fill="#363f48" d="M21 0H3C1.3 0 0 1.3 0 3v18c0 1.7 1.3 3 3 3h18c1.7 0 3-1.3 3-3V3c0-1.7-1.3-3-3-3zm-4.2 9.6v.3c0 3.3-2.5 7-7 7-1.4 0-2.7-.4-3.8-1.1h.6c1.2 0 2.2-.4 3.1-1.1-1.1 0-2-.7-2.3-1.7h.5c.2 0 .4 0 .6-.1-1.1-.2-2-1.2-2-2.4.3.2.7.3 1.1.3-.7-.4-1.1-1.2-1.1-2 0-.5.1-.9.3-1.2 1.2 1.5 3 2.5 5.1 2.6 0-.2-.1-.4-.1-.6 0-1.4 1.1-2.5 2.5-2.5.7 0 1.3.3 1.8.8.6-.1 1.1-.3 1.6-.6-.2.6-.6 1.1-1.1 1.4.5-.1 1-.2 1.4-.4-.3.5-.7.9-1.2 1.3z"/></svg><svg class="fnc-icon foutline" width="64" height="64" viewBox="0 0 64 64" id="close" x="144" y="144"><g fill="none" stroke="#fff" stroke-width="2" stroke-linecap="square" stroke-miterlimit="10"><path d="M54 10L10 54M54 54L10 10"/></g></svg><svg class="gnc-icon gglyph" width="48" height="48" viewBox="0 0 48 48" id="contact" x="208" y="208"><path fill="#d6d8da" d="M24 28.4L1 15.9V43h46V15.9z"/><path data-color="color-2" fill="#0088f2" d="M1 5v8.6l23 12.5 23-12.5V5z"/></svg><svg class="hnc-icon houtline" width="64" height="64" viewBox="0 0 64 64" id="eye" x="256" y="256"><g fill="none" stroke="#fff" stroke-width="4" stroke-linecap="square" stroke-miterlimit="10"><path d="M4 32s12.6-18 28-18c15.3 0 28 18 28 18S47.2 50 32 50C16.7 50 4 32 4 32z"/><circle data-color="color-2" cx="32" cy="32" r="10"/></g></svg><svg width="48" height="58" viewBox="0 0 48 58" id="icon-play" x="320" y="320"><title>icon-play</title><path d="M46.236 25.256L4.606.48C4.096.18 3.574 0 2.976 0 1.346 0 .016 1.346.016 2.99H0v51.44h.015c0 1.645 1.33 2.99 2.96 2.99.614 0 1.122-.21 1.675-.508l41.586-24.748a4.483 4.483 0 0 0 1.614-3.454c0-1.39-.628-2.617-1.614-3.454z" fill="#000" fill-rule="evenodd"/></svg><svg class="jnc-icon jglyph" width="24" height="24" viewBox="0 0 24 24" id="menu" x="368" y="378"><g fill="#fff"><path data-color="color-2" d="M23 13H1c-.6 0-1-.4-1-1s.4-1 1-1h22c.6 0 1 .4 1 1s-.4 1-1 1z"/><path d="M23 6H1c-.6 0-1-.4-1-1s.4-1 1-1h22c.6 0 1 .4 1 1s-.4 1-1 1zM23 20H1c-.6 0-1-.4-1-1s.4-1 1-1h22c.6 0 1 .4 1 1s-.4 1-1 1z"/></g></svg><svg class="knc-icon kglyph" width="48" height="48" viewBox="0 0 48 48" id="partnership" x="392" y="402"><path data-color="color-2" fill="#0088f2" d="M26.8 19.8l-1.4 1.4.7.7c1.7 1.7 2.6 4 2.6 6.4 0 2.4-.9 4.7-2.6 6.4l-5.7 5.7c-3.5 3.5-9.2 3.5-12.7 0s-3.5-9.2 0-12.7l5.7-5.5-1.4-1.6-5.7 5.5C2 30.4 2 37.4 6.3 41.7c2.1 2.1 5 3.2 7.8 3.2s5.6-1.1 7.8-3.2l5.7-5.7c2.1-2.1 3.2-4.8 3.2-7.8 0-2.9-1.1-5.7-3.2-7.8l-.8-.6z"/><path fill="#d6d8da" d="M26.1 6.3L20.5 12c-2.1 2.1-3.2 4.8-3.2 7.8 0 2.9 1.1 5.7 3.2 7.8l.7.7 1.4-1.4-.7-.7c-1.7-1.7-2.6-4-2.6-6.4 0-2.4.9-4.7 2.6-6.4l5.7-5.7c3.5-3.5 9.2-3.5 12.7 0s3.5 9.2 0 12.7L34.6 26l1.4 1.4 5.7-5.5c4.3-4.3 4.3-11.3 0-15.6C37.4 2 30.4 2 26.1 6.3z"/></svg><svg class="lnc-icon loutline" width="64" height="64" viewBox="0 0 64 64" id="plus" x="440" y="450"><g fill="none" stroke="#fff" stroke-width="4" stroke-linecap="square" stroke-miterlimit="10"><path data-color="color-2" d="M32 18v28M46 32H18"/><circle cx="32" cy="32" r="30"/></g></svg><svg class="mnc-icon moutline" width="64" height="64" viewBox="0 0 64 64" id="pointer-left" x="504" y="514"><path fill="none" stroke="#363f48" stroke-width="4" stroke-linecap="square" stroke-miterlimit="10" d="M46 60L18 32 46 4"/></svg><svg class="nnc-icon noutline" width="64" height="64" viewBox="0 0 64 64" id="pointer-right" x="568" y="578"><path fill="none" stroke="#363f48" stroke-width="4" stroke-linecap="square" stroke-miterlimit="10" d="M18 4l28 28-28 28"/></svg><svg class="onc-icon oglyph" width="48" height="48" viewBox="0 0 48 48" id="process" x="632" y="642"><path data-color="color-2" fill="#0088f2" d="M30.94 21.834l3.93 6.737-1.73 1.01-3.93-6.74zM19.094 18.424l1.727 1.008-3.93 6.736-1.728-1.008zM17.9 35H26v2h-8.1z"/><path fill="#d6d8da" d="M10 27c-5 0-9 4-9 9s4 9 9 9 9-4 9-9-4-9-9-9zM38 27c-5 0-9 4-9 9s4 9 9 9 9-4 9-9-4-9-9-9zM33 12c0-5-4-9-9-9s-9 4-9 9 4 9 9 9 9-4 9-9z"/></svg><svg class="pnc-icon pglyph" width="48" height="48" viewBox="0 0 48 48" id="services" x="680" y="690"><path fill="#d6d8da" d="M8 3C5.2 3 3 5.2 3 8s2.2 5 5 5 5-2.2 5-5-2.2-5-5-5zM8 19c-2.8 0-5 2.2-5 5s2.2 5 5 5 5-2.2 5-5-2.2-5-5-5zM8 35c-2.8 0-5 2.2-5 5s2.2 5 5 5 5-2.2 5-5-2.2-5-5-5z"/><path data-color="color-2" fill="#0088f2" d="M19 5h26v6H19zM19 21h26v6H19zM19 37h26v6H19z"/></svg><svg class="qnc-icon qglyph" width="48" height="48" viewBox="0 0 48 48" id="team" x="728" y="738"><path data-color="color-2" fill="#0088f2" d="M8 5c-2.8 0-5 2.2-5 5s2.2 5 5 5 5-2.2 5-5-2.2-5-5-5zM40 5c-2.8 0-5 2.2-5 5s2.2 5 5 5 5-2.2 5-5-2.2-5-5-5z"/><path fill="#d6d8da" d="M24 1c-3.9 0-7 3.1-7 7s3.1 7 7 7 7-3.1 7-7-3.1-7-7-7z"/><path data-color="color-2" fill="#0088f2" d="M12 33.1V19H1v9.3l4 6V43h10v-6.3zM36 19v14.1l-3 3.6V43h10v-8.7l4-6V19z"/><path fill="#d6d8da" d="M14 19v13.4l5 6V47h10v-8.6l5-6V19z"/></svg><svg class="rnc-icon rglyph" width="48" height="48" viewBox="0 0 48 48" id="work" x="776" y="786"><path data-color="color-2" fill="#0088f2" d="M27 34v3h-6v-3H3v11h42V34z"/><path fill="#d6d8da" d="M33 9V3H15v6H1v23h20v-3h6v3h20V9H33zm-2 0H17V5h14v4z"/></svg></svg>