<svg class="nc-icon glyph" xmlns="http://www.w3.org/2000/svg" xmlns:xlink="http://www.w3.org/1999/xlink" x="0px" y="0px" width="48px" height="48px" viewBox="0 0 48 48">
<g>
<path data-color="color-2" fill="#0088f2" d="M44.4,13.4c-0.5,0.4-1.1,0.8-1.7,1c1.5,2.9,2.3,6.2,2.3,9.5c0,11.6-9.4,21-21,21S3,35.6,3,24
	S12.4,3,24,3c3.4,0,6.6,0.8,9.5,2.3c0.3-0.6,0.6-1.2,1-1.7C31.3,1.9,27.7,1,24,1C11.3,1,1,11.3,1,24s10.3,23,23,23s23-10.3,23-23
	C47,20.3,46.1,16.7,44.4,13.4z"></path>
<path fill="#d6d8da" d="M40,13c2.8,0,5-2.2,5-5s-2.2-5-5-5s-5,2.2-5,5S37.2,13,40,13z"></path>
<path fill="#d6d8da" d="M24,25c2.8,0,5-2.2,5-5v-2c0-2.8-2.2-5-5-5s-5,2.2-5,5v2C19,22.8,21.2,25,24,25z"></path>
<path fill="#d6d8da" d="M15,32v1h18v-1c0-2.8-2.2-5-5-5h-8C17.2,27,15,29.2,15,32z"></path>
</g>
</svg>