<?xml version="1.0" encoding="UTF-8" standalone="no"?>
<svg width="24px" height="24px" viewBox="0 0 24 24" version="1.1" xmlns="http://www.w3.org/2000/svg" xmlns:xlink="http://www.w3.org/1999/xlink" xmlns:sketch="http://www.bohemiancoding.com/sketch/ns">
    <!-- Generator: Sketch 3.4.1 (15681) - http://www.bohemiancoding.com/sketch -->
    <title>box-email</title>
    <desc>Created with Sketch.</desc>
    <defs>
        <path d="M12.7173913,0 L0.282608696,0 C0.113043478,0 0,0.115789474 0,0.289473684 L0,10.7105263 C0,10.8842105 0.113043478,11 0.282608696,11 L12.7173913,11 C12.8869565,11 13,10.8842105 13,10.7105263 L13,0.289473684 C13,0.115789474 12.8869565,0 12.7173913,0 L12.7173913,0 Z M3.87173913,7.43947368 L2.74130435,8.59736842 C2.68478261,8.65526316 2.62826087,8.68421053 2.54347826,8.68421053 C2.45869565,8.68421053 2.40217391,8.65526316 2.34565217,8.59736842 C2.2326087,8.48157895 2.2326087,8.30789474 2.34565217,8.19210526 L3.47608696,7.03421053 C3.58913043,6.91842105 3.75869565,6.91842105 3.87173913,7.03421053 C3.98478261,7.15 3.98478261,7.32368421 3.87173913,7.43947368 L3.87173913,7.43947368 Z M10.6543478,8.59736842 C10.5978261,8.65526316 10.5413043,8.68421053 10.4565217,8.68421053 C10.3717391,8.68421053 10.3152174,8.65526316 10.2586957,8.59736842 L9.12826087,7.43947368 C9.01521739,7.32368421 9.01521739,7.15 9.12826087,7.03421053 C9.24130435,6.91842105 9.41086957,6.91842105 9.52391304,7.03421053 L10.6543478,8.19210526 C10.7673913,8.30789474 10.7673913,8.48157895 10.6543478,8.59736842 L10.6543478,8.59736842 Z M10.6543478,2.80789474 L6.69782609,6.86052632 C6.64130435,6.91842105 6.58478261,6.94736842 6.5,6.94736842 C6.41521739,6.94736842 6.35869565,6.91842105 6.30217391,6.86052632 L2.34565217,2.80789474 C2.2326087,2.69210526 2.2326087,2.51842105 2.34565217,2.40263158 C2.45869565,2.28684211 2.62826087,2.28684211 2.74130435,2.40263158 L6.5,6.25263158 L10.2586957,2.40263158 C10.3717391,2.28684211 10.5413043,2.28684211 10.6543478,2.40263158 C10.7673913,2.51842105 10.7673913,2.69210526 10.6543478,2.80789474 L10.6543478,2.80789474 Z" id="path-1"></path>
    </defs>
    <g id="Page-1" stroke="none" stroke-width="1" fill="none" fill-rule="evenodd" sketch:type="MSPage">
        <g id="box-email" sketch:type="MSLayerGroup">
            <path d="M21,0 L3,0 C1.3,0 0,1.3 0,3 L0,21 C0,22.7 1.3,24 3,24 L21,24 C22.7,24 24,22.7 24,21 L24,3 C24,1.3 22.7,0 21,0 L21,0 Z M8.7,18 L6.2,18 L6.2,10 L8.7,10 L8.7,18 L8.7,18 Z M7.4,8.9 C6.6,8.9 6,8.2 6,7.5 C6,6.7 6.6,6 7.4,6 C8.2,6 8.8,6.6 8.8,7.4 C8.9,8.2 8.2,8.9 7.4,8.9 L7.4,8.9 Z M18,18 L15.5,18 L15.5,14.1 C15.5,13.2 15.5,12 14.2,12 C12.9,12 12.7,13 12.7,14.1 L12.7,18.1 L10.2,18.1 L10.2,10.1 L12.6,10.1 L12.6,11.2 L12.6,11.2 C12.9,10.6 13.7,9.9 15,9.9 C17.5,9.9 18,11.6 18,13.7 L18,18 L18,18 Z" id="Shape" fill="#363F48" sketch:type="MSShapeGroup"></path>
            <rect id="Rectangle-2" fill="#363F48" sketch:type="MSShapeGroup" x="0" y="0" width="24" height="24" rx="3"></rect>
            <g id="ui-48px-glyph-1_email-85" transform="translate(6.000000, 7.000000)">
                <g id="Shape">
                    <use fill="#FFFFFF" fill-rule="evenodd" sketch:type="MSShapeGroup" xlink:href="#path-1"></use>
                    <use fill="none" xlink:href="#path-1"></use>
                    <use fill="none" xlink:href="#path-1"></use>
                </g>
            </g>
        </g>
    </g>
</svg>