<svg class="nc-icon glyph" xmlns="http://www.w3.org/2000/svg" xmlns:xlink="http://www.w3.org/1999/xlink" x="0px" y="0px" width="48px" height="48px" viewBox="0 0 48 48"><g>
<path data-color="color-2" fill="#0088f2" d="M26.8,19.8l-1.4,1.4l0.7,0.7c1.7,1.7,2.6,4,2.6,6.4c0,2.4-0.9,4.7-2.6,6.4l-5.7,5.7
	c-3.5,3.5-9.2,3.5-12.7,0c-3.5-3.5-3.5-9.2,0-12.7l5.7-5.5L12,20.6l-5.7,5.5C2,30.4,2,37.4,6.3,41.7c2.1,2.1,5,3.2,7.8,3.2
	c2.8,0,5.6-1.1,7.8-3.2l5.7-5.7c2.1-2.1,3.2-4.8,3.2-7.8c0-2.9-1.1-5.7-3.2-7.8L26.8,19.8z"></path>
<path fill="#d6d8da" d="M26.1,6.3L20.5,12c-2.1,2.1-3.2,4.8-3.2,7.8c0,2.9,1.1,5.7,3.2,7.8l0.7,0.7l1.4-1.4l-0.7-0.7
	c-1.7-1.7-2.6-4-2.6-6.4c0-2.4,0.9-4.7,2.6-6.4l5.7-5.7c3.5-3.5,9.2-3.5,12.7,0c3.5,3.5,3.5,9.2,0,12.7L34.6,26l1.4,1.4l5.7-5.5
	c4.3-4.3,4.3-11.3,0-15.6C37.4,2,30.4,2,26.1,6.3z"></path>
</g></svg>