<svg class="nc-icon glyph" xmlns="http://www.w3.org/2000/svg" xmlns:xlink="http://www.w3.org/1999/xlink" x="0px" y="0px" width="48px" height="48px" viewBox="0 0 48 48">
<g>
<rect data-color="color-2" x="28.1" y="24.7" transform="matrix(0.5038 0.8638 -0.8638 0.5038 38.118 -14.883)" fill="#0088f2" width="7.8" height="2"></rect>
<rect data-color="color-2" x="17" y="18.4" transform="matrix(0.8636 0.5041 -0.5041 0.8636 13.6882 -6.0359)" fill="#0088f2" width="2" height="7.8"></rect>
<rect data-color="color-2" x="17.9" y="35" fill="#0088f2" width="8.1" height="2"></rect>
<path fill="#d6d8da" d="M10,27c-5,0-9,4-9,9s4,9,9,9s9-4,9-9S15,27,10,27z"></path>
<path fill="#d6d8da" d="M38,27c-5,0-9,4-9,9s4,9,9,9s9-4,9-9S43,27,38,27z"></path>
<path fill="#d6d8da" d="M33,12c0-5-4-9-9-9s-9,4-9,9s4,9,9,9S33,17,33,12z"></path>
</g>
</svg>