<svg class="nc-icon glyph" xmlns="http://www.w3.org/2000/svg" xmlns:xlink="http://www.w3.org/1999/xlink" x="0px" y="0px" width="48px" height="48px" viewBox="0 0 48 48"><g>
<path fill="#d6d8da" d="M8,3C5.2,3,3,5.2,3,8s2.2,5,5,5s5-2.2,5-5S10.8,3,8,3z"></path>
<path fill="#d6d8da" d="M8,19c-2.8,0-5,2.2-5,5s2.2,5,5,5s5-2.2,5-5S10.8,19,8,19z"></path>
<path fill="#d6d8da" d="M8,35c-2.8,0-5,2.2-5,5s2.2,5,5,5s5-2.2,5-5S10.8,35,8,35z"></path>
<rect data-color="color-2" x="19" y="5" fill="#0088f2" width="26" height="6"></rect>
<rect data-color="color-2" x="19" y="21" fill="#0088f2" width="26" height="6"></rect>
<rect data-color="color-2" x="19" y="37" fill="#0088f2" width="26" height="6"></rect>
</g></svg>